<?xml version="1.0" standalone="no"?>
<!DOCTYPE svg PUBLIC "-//W3C//DTD SVG 20010904//EN"
 "http://www.w3.org/TR/2001/REC-SVG-20010904/DTD/svg10.dtd">
<svg version="1.0" xmlns="http://www.w3.org/2000/svg"
 width="1224.000000pt" height="1224.000000pt" viewBox="0 0 1224.000000 1224.000000"
 preserveAspectRatio="xMidYMid meet">
<metadata>
Created by potrace 1.14, written by Peter Selinger 2001-2017
</metadata>
<g transform="translate(0.000000,1224.000000) scale(0.100000,-0.100000)"
fill="#000000" stroke="none">
<path d="M6342 11842 c-56 -19 -107 -46 -155 -82 -29 -22 -177 -172 -177 -180
0 -4 -10 -18 -21 -31 -30 -33 -119 -169 -112 -169 3 0 -1 -8 -9 -17 -21 -26
-90 -163 -136 -273 -78 -186 -145 -408 -182 -600 -5 -25 -11 -54 -14 -66 -2
-12 -7 -45 -11 -74 -4 -29 -9 -62 -11 -74 -19 -98 -26 -473 -11 -616 16 -148
26 -233 32 -270 6 -32 14 -93 20 -145 2 -22 6 -51 9 -65 2 -14 10 -59 16 -100
14 -90 18 -117 25 -150 2 -14 7 -42 9 -62 3 -21 10 -66 16 -100 6 -35 13 -74
15 -88 3 -14 9 -50 14 -80 11 -62 18 -105 26 -152 3 -18 10 -55 16 -82 l10
-50 -90 -90 c-187 -190 -276 -283 -597 -622 -17 -18 -55 -61 -85 -94 -30 -34
-63 -72 -74 -84 -130 -143 -358 -439 -456 -591 -25 -38 -54 -83 -65 -100 -57
-89 -167 -301 -219 -425 -51 -120 -113 -314 -131 -410 -3 -14 -7 -32 -9 -40
-5 -18 -14 -73 -20 -121 -2 -19 -7 -59 -11 -89 -9 -65 -9 -333 0 -440 10 -133
26 -238 57 -378 12 -52 22 -99 23 -105 2 -7 5 -19 8 -27 10 -30 62 -195 64
-205 19 -84 227 -500 256 -513 5 -2 8 -8 8 -14 0 -12 130 -188 180 -242 237
-261 511 -448 805 -550 44 -16 87 -31 95 -34 8 -3 24 -7 35 -9 11 -2 31 -7 45
-13 14 -5 39 -11 55 -14 17 -2 37 -7 45 -10 8 -3 33 -8 55 -11 22 -3 85 -12
140 -19 98 -14 518 -15 575 -2 14 3 45 8 70 11 79 9 146 20 213 34 20 5 37 8
38 7 1 -2 7 -30 13 -66 3 -19 8 -46 11 -60 3 -14 8 -43 11 -65 3 -22 9 -60 14
-85 10 -48 20 -102 24 -135 2 -11 6 -33 9 -50 4 -16 9 -46 11 -65 3 -19 10
-66 16 -105 7 -38 14 -83 16 -100 3 -16 7 -41 10 -55 4 -14 8 -41 10 -60 3
-36 9 -75 19 -145 4 -22 8 -51 10 -65 13 -82 30 -242 40 -360 12 -140 4 -335
-15 -386 -5 -13 -7 -24 -5 -24 8 0 -56 -170 -82 -218 -27 -50 -67 -107 -92
-133 -9 -9 -23 -25 -32 -35 -32 -38 -99 -95 -159 -133 -55 -36 -191 -99 -230
-106 -8 -2 -16 -4 -17 -5 -2 -2 -6 -3 -10 -4 -5 -1 -14 -5 -20 -9 -7 -5 -13
-6 -13 -3 0 2 -15 0 -32 -5 -48 -15 -254 -20 -313 -8 -27 6 -61 12 -74 15 -58
12 -171 74 -214 117 -43 44 -100 144 -91 158 2 4 23 10 47 14 155 26 322 143
405 283 15 26 27 49 28 52 0 3 6 18 13 35 46 110 49 266 7 388 -66 197 -220
337 -431 394 -47 13 -232 11 -285 -3 -116 -30 -206 -85 -318 -194 -21 -20 -82
-117 -82 -130 0 -5 -5 -10 -10 -10 -6 0 -9 -3 -8 -7 1 -5 -5 -24 -14 -44 -14
-33 -32 -95 -28 -101 1 -2 -4 -16 -10 -32 -13 -36 -20 -87 -25 -197 -2 -47 -5
-90 -6 -95 -1 -5 0 -11 1 -14 1 -3 4 -16 5 -30 7 -89 37 -177 90 -264 19 -32
35 -60 35 -62 0 -7 60 -72 123 -135 112 -111 339 -245 507 -299 36 -11 72 -24
80 -27 18 -7 16 -7 115 -28 74 -16 99 -19 195 -30 48 -5 216 -6 262 -1 142 16
213 32 318 73 112 44 215 104 287 168 15 14 33 29 38 33 59 51 140 162 192
262 37 71 90 215 99 270 3 14 7 32 10 40 3 8 8 32 11 53 3 21 6 44 7 50 1 7 5
17 9 24 4 6 3 14 -2 18 -6 3 -7 15 -1 29 9 24 6 350 -4 421 -3 22 -10 78 -16
125 -13 92 -17 122 -20 130 -2 3 -2 9 -1 13 1 5 -5 47 -13 95 -21 121 -27 163
-32 195 -2 15 -6 39 -9 55 -3 15 -8 41 -11 57 -2 17 -7 41 -11 55 -3 14 -7 36
-9 50 -6 43 -11 74 -17 105 -7 31 -13 66 -23 124 -3 18 -8 42 -10 52 -10 45
-12 56 -19 99 -5 25 -9 52 -10 60 0 9 -4 21 -9 28 -4 6 -5 12 -2 12 2 0 -2 25
-9 56 l-13 56 57 25 c272 118 493 284 649 488 34 44 67 87 74 95 7 9 20 29 28
45 8 17 18 32 21 35 26 21 155 335 173 421 3 13 8 35 11 49 3 14 8 40 11 59 3
18 8 43 10 55 23 109 24 487 0 556 -3 8 -7 33 -10 55 -3 22 -10 55 -15 73 -5
18 -10 33 -9 35 1 9 -45 163 -61 202 -31 73 -116 244 -141 280 -17 24 -30 48
-30 53 0 6 -3 12 -7 14 -5 2 -27 29 -51 60 -77 104 -207 227 -325 307 -93 63
-360 182 -375 167 -2 -3 -12 -1 -22 4 -17 9 -45 15 -120 27 -54 9 -348 9 -410
0 -102 -15 -92 -21 -112 73 -10 47 -20 94 -22 105 -2 11 -14 67 -26 125 -12
58 -24 116 -26 130 -3 14 -7 33 -10 42 -3 10 -7 30 -10 45 -3 16 -13 69 -24
118 -10 50 -21 107 -24 129 -4 21 -8 41 -10 45 -2 3 -7 22 -10 41 -3 19 -10
58 -16 85 -6 28 -15 78 -21 112 l-10 62 63 63 c35 36 83 86 108 114 39 42 70
78 190 222 11 13 20 26 20 28 0 2 9 14 21 27 21 26 159 225 159 231 0 2 18 33
40 67 37 61 172 322 177 344 1 5 15 42 31 80 16 39 32 79 37 90 4 11 9 25 10
31 2 6 14 44 28 85 24 69 72 245 84 307 8 42 11 57 13 57 1 0 3 9 4 20 2 11 8
52 15 90 6 39 13 80 14 93 1 12 4 22 7 22 3 0 5 15 6 33 0 17 3 64 7 102 15
146 18 173 23 285 6 130 6 222 0 263 -2 15 1 27 6 27 5 0 7 3 4 8 -2 4 -7 70
-10 147 -10 229 -23 346 -56 535 -37 207 -83 377 -147 540 -33 86 -112 244
-124 248 -5 2 -9 8 -9 14 0 5 -11 24 -25 42 -14 18 -25 35 -25 39 0 10 -74 82
-128 125 -86 67 -201 88 -300 54z m278 -1005 c0 -5 4 -5 10 -2 15 9 76 -23
111 -59 54 -54 92 -143 114 -266 14 -76 15 -377 1 -430 -3 -14 -8 -39 -11 -57
-8 -66 -59 -234 -100 -335 -41 -100 -49 -118 -57 -118 -5 0 -8 -6 -8 -14 0
-24 -151 -283 -174 -298 -6 -5 -7 -8 -1 -8 6 0 6 -3 -1 -8 -6 -4 -26 -29 -44
-57 -42 -61 -151 -208 -160 -215 -4 -3 -38 -43 -75 -89 -38 -47 -76 -92 -84
-101 -21 -21 -156 -172 -200 -222 -18 -21 -37 -38 -41 -38 -6 0 -16 50 -35
180 -11 75 -27 191 -31 230 -2 25 -8 79 -13 120 -11 108 -5 329 15 490 15 127
22 166 44 275 6 28 12 61 15 74 31 161 146 453 237 601 109 177 268 317 397
348 43 10 91 10 91 -1z m-686 -3702 c3 -16 10 -52 15 -80 5 -27 14 -70 20 -95
5 -25 13 -61 16 -80 3 -19 8 -48 11 -64 3 -16 7 -32 9 -35 2 -4 6 -27 10 -51
3 -25 8 -52 10 -60 2 -8 7 -28 10 -45 3 -16 23 -115 43 -220 l38 -190 -26 -11
c-62 -27 -185 -87 -190 -93 -3 -3 -21 -15 -40 -25 -19 -11 -47 -29 -62 -40
-15 -12 -51 -39 -81 -61 -52 -38 -193 -174 -247 -240 -14 -17 -43 -57 -65 -90
-22 -33 -44 -63 -50 -67 -5 -4 -6 -8 -1 -8 5 0 2 -8 -7 -18 -35 -39 -121 -247
-143 -346 -29 -128 -33 -170 -29 -296 1 -69 6 -138 9 -155 4 -16 9 -43 12 -60
30 -143 138 -358 243 -478 43 -50 125 -130 175 -172 27 -22 54 -44 60 -50 7
-5 19 -14 28 -20 8 -5 40 -26 70 -46 66 -44 151 -92 242 -137 54 -26 71 -30
77 -20 4 7 14 21 21 32 13 17 6 26 -78 110 -51 50 -113 118 -138 151 -25 33
-49 65 -53 70 -40 51 -133 229 -133 254 0 9 -4 21 -9 27 -37 41 -61 323 -36
429 7 30 13 57 13 58 3 41 77 219 93 225 5 2 9 10 9 18 0 8 5 14 10 14 6 0 10
5 10 11 0 14 74 103 124 148 83 77 215 156 298 179 l36 10 7 -45 c3 -25 9 -55
11 -66 3 -12 6 -31 8 -42 2 -11 6 -29 9 -40 3 -11 9 -33 12 -50 3 -16 8 -43
11 -60 3 -16 14 -73 24 -125 11 -52 21 -106 24 -120 3 -14 14 -70 25 -125 11
-55 22 -111 25 -125 2 -14 11 -59 19 -100 9 -41 19 -93 23 -115 11 -58 12 -63
23 -114 6 -25 13 -59 15 -76 3 -16 8 -43 11 -60 7 -31 10 -45 20 -105 3 -19
10 -55 15 -80 5 -25 12 -57 15 -72 3 -16 7 -40 10 -55 3 -16 10 -48 15 -73 5
-25 12 -61 15 -80 3 -19 8 -42 10 -50 3 -8 7 -31 9 -50 3 -19 10 -60 16 -90 6
-30 13 -66 16 -80 2 -14 9 -49 15 -78 6 -29 8 -59 6 -67 -8 -19 -176 -57 -361
-80 -57 -7 -291 -8 -323 -1 -12 3 -48 7 -80 11 -32 3 -76 10 -98 16 -22 5 -51
11 -65 14 -33 5 -187 50 -225 66 -16 7 -35 13 -42 15 -7 1 -56 23 -110 48
-225 108 -397 236 -544 406 -29 33 -120 159 -138 190 -69 121 -132 264 -161
370 -7 25 -16 56 -21 70 -4 14 -10 39 -13 55 -3 17 -7 41 -10 55 -35 180 -41
535 -12 700 3 14 7 42 10 62 3 21 11 57 16 80 6 24 13 51 15 62 2 10 12 44 21
75 10 31 18 58 19 61 0 3 7 16 15 30 7 14 12 25 11 25 -3 0 8 33 24 70 7 17
16 40 20 53 3 12 11 22 16 22 5 0 9 7 9 16 0 19 63 129 143 247 60 91 186 246
264 326 24 24 43 48 43 53 0 4 3 8 8 8 4 0 46 37 93 83 104 100 184 173 270
248 35 31 87 76 114 100 28 24 66 58 85 75 19 17 84 75 145 129 l110 97 7 -33
c3 -19 9 -47 12 -64z m700 -1589 c135 -22 267 -75 375 -149 72 -49 193 -175
248 -257 53 -79 128 -220 117 -220 -4 0 -2 -6 3 -12 16 -20 50 -134 70 -228
21 -107 24 -440 4 -440 -4 0 -7 -18 -8 -39 -3 -48 -56 -208 -91 -276 -81 -154
-213 -307 -337 -390 -33 -22 -62 -43 -65 -46 -3 -3 -13 -8 -22 -12 -20 -7 -21
-6 -48 133 -12 58 -23 114 -26 125 -2 11 -7 35 -10 54 -9 51 -32 165 -39 191
-2 8 -14 72 -19 100 -2 14 -10 48 -16 75 -7 28 -13 57 -15 65 -1 8 -5 29 -8
45 -4 17 -9 44 -12 60 -3 17 -7 35 -9 40 -4 17 -15 69 -20 95 -9 49 -25 126
-40 195 -9 39 -18 81 -20 95 -3 14 -7 36 -10 50 -3 14 -11 50 -17 80 -5 30
-14 69 -19 85 -5 17 -12 48 -15 71 -3 22 -10 55 -15 73 -5 17 -9 34 -9 36 0 3
-2 18 -5 33 -3 15 -8 38 -11 52 -4 23 -41 199 -51 245 -2 11 -6 34 -10 50 l-5
30 58 -1 c32 -1 76 -4 97 -8z"/>
</g>
</svg>
